PathFileType	4	(X/Y/Z)	/Users/itak/Documents/Research/Walk-IL/dataset/trc/00495_00183.trc
DataRate	CameraRate	NumFrames	NumMarkers	Units	OrigDataRate	OrigDataStartFrame	OrigNumFrames
100.000000	100.000000	4	53	mm	100.000000	89	713
Frame#	Time	RPSI			LPSI			L3			STRN			T10			C7			CLAV			RBAK			LBAK			LSHO			LUPA			LAEL			LAOL			LWTS			LWPS			LFRA			LIFD			LHPS			LHTS			RSHO			RUPA			RAEL			RAOL			RWTS			RWPS			RFRA			RIFD			RHTS			RHPS			RBHD			LFHD			RFHD			LBHD			LHIP			RHIP			RASI			LASI			LKNE			LTHI			LANK			LTIP			LTOE			LMT1			LMT5			LHEE			RKNE			RANK			RTIP			RTOE			RMT1			RMT5			RHEE			RTHI			
		X1	Y1	Z1	X2	Y2	Z2	X3	Y3	Z3	X4	Y4	Z4	X5	Y5	Z5	X6	Y6	Z6	X7	Y7	Z7	X8	Y8	Z8	X9	Y9	Z9	X10	Y10	Z10	X11	Y11	Z11	X12	Y12	Z12	X13	Y13	Z13	X14	Y14	Z14	X15	Y15	Z15	X16	Y16	Z16	X17	Y17	Z17	X18	Y18	Z18	X19	Y19	Z19	X20	Y20	Z20	X21	Y21	Z21	X22	Y22	Z22	X23	Y23	Z23	X24	Y24	Z24	X25	Y25	Z25	X26	Y26	Z26	X27	Y27	Z27	X28	Y28	Z28	X29	Y29	Z29	X30	Y30	Z30	X31	Y31	Z31	X32	Y32	Z32	X33	Y33	Z33	X34	Y34	Z34	X35	Y35	Z35	X36	Y36	Z36	X37	Y37	Z37	X38	Y38	Z38	X39	Y39	Z39	X40	Y40	Z40	X41	Y41	Z41	X42	Y42	Z42	X43	Y43	Z43	X44	Y44	Z44	X45	Y45	Z45	X46	Y46	Z46	X47	Y47	Z47	X48	Y48	Z48	X49	Y49	Z49	X50	Y50	Z50	X51	Y51	Z51	X52	Y52	Z52	X53	Y53	Z53	

90	0.89	-1205.432373046875	974.2399291992188	-399.8727722167969	-1146.543334960938	971.8839721679688	-508.5939025878906	-1192.290161132812	1034.677978515625	-459.08203125	-990.0003051757812	1201.441772460938	-381.3790283203125	-1210.510864257812	1140.622192382812	-466.4441833496094	-1167.188598632812	1370.00048828125	-448.4453735351562	-1024.2841796875	1297.371459960938	-394.1979064941406	-1244.276245117188	1249.87890625	-386.8864440917969	-1161.620361328125	1317.131225585938	-538.5531005859375	-1048.227416992188	1363.589111328125	-576.4498291015625	-1044.273559570312	1234.661987304688	-634.6637573242188	-1033.81689453125	1025.517944335938	-657.5762329101562	-1126.158447265625	1021.050170898438	-617.8959350585938	-966.3400268554688	836.328369140625	-596.197509765625	-1025.209106445312	813.7424926757812	-665.0852661132812	-1013.310546875	952.3859252929688	-654.9642333984375	-977.4711303710938	677.0888061523438	-615.0416870117188	-1007.287231445312	758.3009033203125	-662.836669921875	-954.7689819335938	760.0345458984375	-624.6248168945312	-1171.520263671875	1367.688110351562	-290.3887023925781	-1210.376220703125	1300.402709960938	-244.5230865478516	-1233.408447265625	1032.72509765625	-210.8036346435547	-1269.459594726562	1019.334899902344	-265.0800476074219	-1124.403564453125	833.30810546875	-209.9066009521484	-1211.380981445312	809.9217529296875	-192.8324279785156	-1234.326049804688	977.2733154296875	-204.1383666992188	-1125.373901367188	673.7511596679688	-202.1537628173828	-1117.81884765625	742.554931640625	-181.34326171875	-1188.158569335938	737.3383178710938	-182.9518585205078	-1173.630493164062	1517.462890625	-366.8858947753906	-1001.546630859375	1592.845825195312	-437.7461853027344	-1062.277221679688	1587.158935546875	-325.7855834960938	-1111.501586914062	1518.560546875	-513.1856689453125	-994.5441284179688	900.1358642578125	-581.1583251953125	-1163.208374023438	867.7473754882812	-245.9193725585938	-1046.468383789062	908.6605224609375	-258.1917724609375	-943.5110473632812	928.4353637695312	-475.766845703125	-1013.859802246094	472.797119140625	-557.8097534179688	-984.3489379882812	631.4454345703125	-566.1155395507812	-1086.2001953125	46.84828567504883	-571.3052368164062	-1040.111694335938	325.7475891113281	-574.3557739257812	-949.0718994140625	42.48370361328125	-418.62939453125	-1031.43701171875	45.83440399169922	-429.8219604492188	-986.1455078125	42.29249572753906	-521.662353515625	-1161.382934570312	46.62371826171875	-542.4403686523438	-1181.47216796875	481.5198974609375	-277.1452941894531	-1224.793579101562	49.19457626342773	-335.7037353515625	-1181.783569335938	339.7481079101562	-292.9662170410156	-1023.527099609375	44.1419677734375	-290.0697021484375	-1069.150512695312	50.70229721069336	-351.7812805175781	-1126.987060546875	48.22761154174805	-275.0641784667969	-1251.811401367188	39.65777969360352	-401.4072570800781	nan	nan	nan	
91	0.9	-1205.399169921875	974.226318359375	-399.9133911132812	-1146.482543945312	971.8719482421875	-508.6595153808594	-1192.27099609375	1034.651977539062	-459.1407165527344	-990.0384521484375	1201.399169921875	-381.3525085449219	-1210.493896484375	1140.594360351562	-466.5123291015625	-1167.166137695312	1369.978393554688	-448.4660339355469	-1024.297485351562	1297.340209960938	-394.1696472167969	-1244.2666015625	1249.858642578125	-386.9713134765625	-1161.565063476562	1317.100830078125	-538.58251953125	-1048.185302734375	1363.573974609375	-576.454833984375	-1044.216430664062	1234.633666992188	-634.650146484375	-1033.7158203125	1025.482421875	-657.5502319335938	-1126.079345703125	1021.021667480469	-617.8843383789062	-966.2589111328125	836.3172607421875	-596.1693725585938	-1025.0986328125	813.7026977539062	-665.078857421875	-1013.201354980469	952.3561401367188	-654.9423217773438	-977.3782958984375	677.0614013671875	-614.9891357421875	-1007.276123046875	758.2949829101562	-662.8466796875	-954.6890258789062	759.671142578125	-624.5048828125	-1171.5625	1367.672119140625	-290.4307861328125	-1210.45166015625	1300.385986328125	-244.5799865722656	-1233.509521484375	1032.6943359375	-210.8762512207031	-1269.525634765625	1019.307189941406	-265.1451110839844	-1124.487060546875	833.284912109375	-209.8864288330078	-1211.479248046875	809.9027099609375	-192.8792114257812	-1234.453735351562	977.2535400390625	-204.2313537597656	-1125.46533203125	673.7313842773438	-202.1506195068359	-1117.922607421875	742.5325317382812	-181.3397369384766	-1188.2646484375	737.332763671875	-182.9950866699219	-1173.5703125	1517.470703125	-366.9446105957031	-1001.503540039062	1592.831420898438	-437.77392578125	-1062.2421875	1587.203125	-325.8005981445312	-1111.412353515625	1518.527099609375	-513.2014770507812	-994.4335327148438	900.1185302734375	-581.1199340820312	-1163.26171875	867.7373657226562	-245.9421081542969	-1046.509155273438	908.6633911132812	-258.1731262207031	-943.5008544921875	928.4038696289062	-475.7418518066406	-1013.838623046875	472.7833862304688	-557.7919311523438	-984.3106689453125	631.4171752929688	-566.0958251953125	-1086.202026367188	46.85044097900391	-571.306396484375	-1040.08251953125	325.7575988769531	-574.34423828125	-949.09326171875	42.48471069335938	-418.5775451660156	-1031.43115234375	45.83670425415039	-429.7896118164062	-986.1427612304688	42.30900192260742	-521.6636962890625	-1161.382446289062	46.62150192260742	-542.4395141601562	-1181.490966796875	481.5141906738281	-277.1594848632812	-1224.79541015625	49.19783782958984	-335.7047729492188	-1181.782470703125	339.7491149902344	-292.9889526367188	-1023.524536132812	44.14335632324219	-290.0657958984375	-1069.15625	50.69887161254883	-351.78076171875	-1126.986083984375	48.22829818725586	-275.0646057128906	-1251.812866210938	39.66088104248047	-401.4130249023438	nan	nan	nan	
92	0.91	-1205.367065429688	974.2103881835938	-399.9497680664062	-1146.414184570312	971.8588256835938	-508.7301025390625	-1192.247192382812	1034.62158203125	-459.2082824707031	-990.08056640625	1201.358520507812	-381.3260498046875	-1210.482788085938	1140.562133789062	-466.5771484375	-1167.149047851562	1369.959350585938	-448.493408203125	-1024.3173828125	1297.30859375	-394.1434020996094	-1244.260864257812	1249.8359375	-387.05859375	-1161.511840820312	1317.059814453125	-538.6171875	-1048.14892578125	1363.556274414062	-576.4606323242188	-1044.169067382812	1234.605346679688	-634.6392822265625	-1033.630859375	1025.44580078125	-657.52978515625	-1126.011352539062	1020.990417480469	-617.8721313476562	-966.1854248046875	836.301025390625	-596.14697265625	-1024.994873046875	813.6641845703125	-665.0730590820312	-1013.102661132812	952.3261108398438	-654.9270629882812	-977.275390625	677.0361938476562	-614.9243774414062	-1007.273315429688	758.28662109375	-662.8590698242188	-954.59326171875	759.3651123046875	-624.4118041992188	-1171.609741210938	1367.654541015625	-290.4741516113281	-1210.533081054688	1300.366333007812	-244.6401062011719	-1233.61328125	1032.656616210938	-210.95361328125	-1269.591186523438	1019.274658203125	-265.21533203125	-1124.56689453125	833.2603759765625	-209.8660888671875	-1211.571655273438	809.8806762695312	-192.9281005859375	-1234.577514648438	977.2289428710938	-204.3285217285156	-1125.55078125	673.712158203125	-202.1478118896484	-1118.025512695312	742.5075073242188	-181.3277130126953	-1188.368530273438	737.324462890625	-183.0301208496094	-1173.519897460938	1517.477172851562	-366.98779296875	-1001.45068359375	1592.813354492188	-437.801025390625	-1062.184204101562	1587.246704101562	-325.807373046875	-1111.322631835938	1518.49853515625	-513.2178955078125	-994.3236694335938	900.1006469726562	-581.0801391601562	-1163.313354492188	867.7265625	-245.9653930664062	-1046.5458984375	908.6651611328125	-258.1559448242188	-943.4947509765625	928.3735961914062	-475.7183532714844	-1013.807922363281	472.7667846679688	-557.7714233398438	-984.2703247070312	631.3864135742188	-566.0789794921875	-1086.20361328125	46.85189819335938	-571.3070678710938	-1040.049926757812	325.7670593261719	-574.3344116210938	-949.1099853515625	42.48591995239258	-418.5307312011719	-1031.42431640625	45.84172058105469	-429.75048828125	-986.1378784179688	42.33008193969727	-521.6671752929688	-1161.381713867188	46.61756134033203	-542.4384765625	-1181.507080078125	481.5108947753906	-277.173095703125	-1224.798095703125	49.20149993896484	-335.7064514160156	-1181.78173828125	339.7507934570312	-293.0098876953125	-1023.524597167969	44.14545822143555	-290.0625	-1069.163452148438	50.69425964355469	-351.7803344726562	-1126.98486328125	48.22843170166016	-275.0643310546875	-1251.814575195312	39.66495895385742	-401.4203186035156	nan	nan	nan	
93	0.92	-1205.336181640625	974.193359375	-399.9817504882812	-1146.341186523438	971.8469848632812	-508.8005676269531	-1192.218994140625	1034.587524414062	-459.2826232910156	-990.1248779296875	1201.321899414062	-381.2998352050781	-1210.476196289062	1140.5283203125	-466.6374816894531	-1167.136962890625	1369.944213867188	-448.52685546875	-1024.3427734375	1297.278442382812	-394.1201477050781	-1244.259155273438	1249.810913085938	-387.1475524902344	-1161.460083007812	1317.00927734375	-538.6570434570312	-1048.1171875	1363.536254882812	-576.4675903320312	-1044.130615234375	1234.578125	-634.6312866210938	-1033.560791015625	1025.409301757812	-657.5147094726562	-1125.953857421875	1020.958129882812	-617.8600463867188	-966.1193237304688	836.2808837890625	-596.1298217773438	-1024.896728515625	813.629150390625	-665.067138671875	-1013.017211914062	952.2980346679688	-654.9176635742188	-977.1677856445312	677.0128784179688	-614.8568115234375	-1007.270080566406	758.2731323242188	-662.8658447265625	-954.4906616210938	759.1301879882812	-624.3499145507812	-1171.6611328125	1367.635864257812	-290.5186157226562	-1210.618774414062	1300.344482421875	-244.7032775878906	-1233.716796875	1032.613891601562	-211.0359649658203	-1269.655029296875	1019.239074707031	-265.291015625	-1124.641479492188	833.23583984375	-209.849853515625	-1211.656372070312	809.8568725585938	-192.9799346923828	-1234.6923828125	977.2006225585938	-204.4292297363281	-1125.626953125	673.6943969726562	-202.1457366943359	-1118.123291015625	742.4825439453125	-181.3105163574219	-1188.466186523438	737.3137817382812	-183.0582427978516	-1173.481689453125	1517.4833984375	-367.0158996582031	-1001.386840820312	1592.793823242188	-437.8251953125	-1062.105102539062	1587.28662109375	-325.8082580566406	-1111.233276367188	1518.476684570312	-513.2351684570312	-994.2159423828125	900.0828857421875	-581.0386962890625	-1163.360229492188	867.7158813476562	-245.9898071289062	-1046.57861328125	908.666748046875	-258.1410217285156	-943.489990234375	928.34619140625	-475.6950378417969	-1013.765441894531	472.7485656738281	-557.7481689453125	-984.2286376953125	631.3541259765625	-566.064453125	-1086.20458984375	46.85285186767578	-571.3074340820312	-1040.014038085938	325.77587890625	-574.3258666992188	-949.117919921875	42.48684310913086	-418.4950256347656	-1031.41748046875	45.84806442260742	-429.7100524902344	-986.1314697265625	42.35446548461914	-521.6722412109375	-1161.38037109375	46.61184310913086	-542.4373779296875	-1181.517944335938	481.5093994140625	-277.1854553222656	-1224.80029296875	49.20516586303711	-335.70849609375	-1181.780395507812	339.7524108886719	-293.02783203125	-1023.526672363281	44.14785766601562	-290.06005859375	-1069.1708984375	50.68888854980469	-351.7801513671875	-1126.98291015625	48.22829437255859	-275.063232421875	-1251.816162109375	39.66940307617188	-401.4276733398438	nan	nan	nan	
